<svg xmlns="http://www.w3.org/2000/svg" width="320" height="299" viewBox="0 0 320 299">
  <g id="Grupo_1494" data-name="Grupo 1494" transform="translate(-310 -3763)">
    <circle id="Elipse_67" data-name="Elipse 67" cx="4.5" cy="4.5" r="4.5" transform="translate(310 3763)" fill="#009aa7"/>
    <circle id="Elipse_68" data-name="Elipse 68" cx="4.5" cy="4.5" r="4.5" transform="translate(345 3763)" fill="#009aa7"/>
    <circle id="Elipse_69" data-name="Elipse 69" cx="4.5" cy="4.5" r="4.5" transform="translate(379 3763)" fill="#009aa7"/>
    <circle id="Elipse_70" data-name="Elipse 70" cx="4.5" cy="4.5" r="4.5" transform="translate(414 3763)" fill="#009aa7"/>
    <circle id="Elipse_71" data-name="Elipse 71" cx="4.5" cy="4.5" r="4.5" transform="translate(448 3763)" fill="#009aa7"/>
    <circle id="Elipse_72" data-name="Elipse 72" cx="4.5" cy="4.5" r="4.5" transform="translate(483 3763)" fill="#009aa7"/>
    <circle id="Elipse_73" data-name="Elipse 73" cx="4.5" cy="4.5" r="4.5" transform="translate(518 3763)" fill="#009aa7"/>
    <circle id="Elipse_74" data-name="Elipse 74" cx="4.5" cy="4.5" r="4.5" transform="translate(552 3763)" fill="#009aa7"/>
    <circle id="Elipse_75" data-name="Elipse 75" cx="4.5" cy="4.5" r="4.5" transform="translate(587 3763)" fill="#009aa7"/>
    <circle id="Elipse_76" data-name="Elipse 76" cx="4.5" cy="4.5" r="4.5" transform="translate(621 3763)" fill="#009aa7"/>
    <circle id="Elipse_67-2" data-name="Elipse 67" cx="4.5" cy="4.5" r="4.5" transform="translate(310 3804)" fill="#009aa7"/>
    <circle id="Elipse_68-2" data-name="Elipse 68" cx="4.5" cy="4.5" r="4.5" transform="translate(345 3804)" fill="#009aa7"/>
    <circle id="Elipse_69-2" data-name="Elipse 69" cx="4.5" cy="4.5" r="4.5" transform="translate(379 3804)" fill="#009aa7"/>
    <circle id="Elipse_70-2" data-name="Elipse 70" cx="4.5" cy="4.5" r="4.5" transform="translate(414 3804)" fill="#009aa7"/>
    <circle id="Elipse_71-2" data-name="Elipse 71" cx="4.5" cy="4.5" r="4.5" transform="translate(448 3804)" fill="#009aa7"/>
    <circle id="Elipse_72-2" data-name="Elipse 72" cx="4.5" cy="4.5" r="4.5" transform="translate(483 3804)" fill="#009aa7"/>
    <circle id="Elipse_73-2" data-name="Elipse 73" cx="4.5" cy="4.5" r="4.5" transform="translate(518 3804)" fill="#009aa7"/>
    <circle id="Elipse_74-2" data-name="Elipse 74" cx="4.5" cy="4.5" r="4.5" transform="translate(552 3804)" fill="#009aa7"/>
    <circle id="Elipse_75-2" data-name="Elipse 75" cx="4.5" cy="4.5" r="4.5" transform="translate(587 3804)" fill="#009aa7"/>
    <circle id="Elipse_76-2" data-name="Elipse 76" cx="4.5" cy="4.5" r="4.5" transform="translate(621 3804)" fill="#009aa7"/>
    <circle id="Elipse_67-3" data-name="Elipse 67" cx="4.5" cy="4.5" r="4.5" transform="translate(310 3846)" fill="#009aa7"/>
    <circle id="Elipse_68-3" data-name="Elipse 68" cx="4.5" cy="4.5" r="4.5" transform="translate(345 3846)" fill="#009aa7"/>
    <circle id="Elipse_69-3" data-name="Elipse 69" cx="4.5" cy="4.5" r="4.5" transform="translate(379 3846)" fill="#009aa7"/>
    <circle id="Elipse_70-3" data-name="Elipse 70" cx="4.5" cy="4.5" r="4.5" transform="translate(414 3846)" fill="#009aa7"/>
    <circle id="Elipse_71-3" data-name="Elipse 71" cx="4.5" cy="4.5" r="4.5" transform="translate(448 3846)" fill="#009aa7"/>
    <circle id="Elipse_72-3" data-name="Elipse 72" cx="4.5" cy="4.5" r="4.5" transform="translate(483 3846)" fill="#009aa7"/>
    <circle id="Elipse_73-3" data-name="Elipse 73" cx="4.5" cy="4.5" r="4.5" transform="translate(518 3846)" fill="#009aa7"/>
    <circle id="Elipse_74-3" data-name="Elipse 74" cx="4.5" cy="4.5" r="4.5" transform="translate(552 3846)" fill="#009aa7"/>
    <circle id="Elipse_75-3" data-name="Elipse 75" cx="4.5" cy="4.5" r="4.5" transform="translate(587 3846)" fill="#009aa7"/>
    <circle id="Elipse_76-3" data-name="Elipse 76" cx="4.5" cy="4.5" r="4.5" transform="translate(621 3846)" fill="#009aa7"/>
    <circle id="Elipse_67-4" data-name="Elipse 67" cx="4.5" cy="4.5" r="4.5" transform="translate(310 3887)" fill="#009aa7"/>
    <circle id="Elipse_68-4" data-name="Elipse 68" cx="4.5" cy="4.5" r="4.5" transform="translate(345 3887)" fill="#009aa7"/>
    <circle id="Elipse_69-4" data-name="Elipse 69" cx="4.5" cy="4.5" r="4.5" transform="translate(379 3887)" fill="#009aa7"/>
    <circle id="Elipse_70-4" data-name="Elipse 70" cx="4.5" cy="4.5" r="4.5" transform="translate(414 3887)" fill="#009aa7"/>
    <circle id="Elipse_71-4" data-name="Elipse 71" cx="4.5" cy="4.5" r="4.5" transform="translate(448 3887)" fill="#009aa7"/>
    <circle id="Elipse_72-4" data-name="Elipse 72" cx="4.5" cy="4.5" r="4.5" transform="translate(483 3887)" fill="#009aa7"/>
    <circle id="Elipse_73-4" data-name="Elipse 73" cx="4.5" cy="4.5" r="4.5" transform="translate(518 3887)" fill="#009aa7"/>
    <circle id="Elipse_74-4" data-name="Elipse 74" cx="4.5" cy="4.5" r="4.5" transform="translate(552 3887)" fill="#009aa7"/>
    <circle id="Elipse_75-4" data-name="Elipse 75" cx="4.5" cy="4.5" r="4.5" transform="translate(587 3887)" fill="#009aa7"/>
    <circle id="Elipse_76-4" data-name="Elipse 76" cx="4.5" cy="4.5" r="4.5" transform="translate(621 3887)" fill="#009aa7"/>
    <circle id="Elipse_67-5" data-name="Elipse 67" cx="4.5" cy="4.5" r="4.5" transform="translate(310 3929)" fill="#009aa7"/>
    <circle id="Elipse_68-5" data-name="Elipse 68" cx="4.5" cy="4.5" r="4.5" transform="translate(345 3929)" fill="#009aa7"/>
    <circle id="Elipse_69-5" data-name="Elipse 69" cx="4.5" cy="4.5" r="4.5" transform="translate(379 3929)" fill="#009aa7"/>
    <circle id="Elipse_70-5" data-name="Elipse 70" cx="4.5" cy="4.5" r="4.5" transform="translate(414 3929)" fill="#009aa7"/>
    <circle id="Elipse_71-5" data-name="Elipse 71" cx="4.5" cy="4.5" r="4.5" transform="translate(448 3929)" fill="#009aa7"/>
    <circle id="Elipse_72-5" data-name="Elipse 72" cx="4.5" cy="4.5" r="4.5" transform="translate(483 3929)" fill="#009aa7"/>
    <circle id="Elipse_73-5" data-name="Elipse 73" cx="4.5" cy="4.5" r="4.5" transform="translate(518 3929)" fill="#009aa7"/>
    <circle id="Elipse_74-5" data-name="Elipse 74" cx="4.5" cy="4.5" r="4.5" transform="translate(552 3929)" fill="#009aa7"/>
    <circle id="Elipse_75-5" data-name="Elipse 75" cx="4.5" cy="4.5" r="4.5" transform="translate(587 3929)" fill="#009aa7"/>
    <circle id="Elipse_76-5" data-name="Elipse 76" cx="4.5" cy="4.5" r="4.5" transform="translate(621 3929)" fill="#009aa7"/>
    <circle id="Elipse_67-6" data-name="Elipse 67" cx="4.5" cy="4.5" r="4.5" transform="translate(310 3970)" fill="#009aa7"/>
    <circle id="Elipse_68-6" data-name="Elipse 68" cx="4.5" cy="4.5" r="4.5" transform="translate(345 3970)" fill="#009aa7"/>
    <circle id="Elipse_69-6" data-name="Elipse 69" cx="4.5" cy="4.5" r="4.5" transform="translate(379 3970)" fill="#009aa7"/>
    <circle id="Elipse_70-6" data-name="Elipse 70" cx="4.5" cy="4.5" r="4.5" transform="translate(414 3970)" fill="#009aa7"/>
    <circle id="Elipse_71-6" data-name="Elipse 71" cx="4.5" cy="4.5" r="4.5" transform="translate(448 3970)" fill="#009aa7"/>
    <circle id="Elipse_72-6" data-name="Elipse 72" cx="4.5" cy="4.5" r="4.5" transform="translate(483 3970)" fill="#009aa7"/>
    <circle id="Elipse_73-6" data-name="Elipse 73" cx="4.5" cy="4.5" r="4.5" transform="translate(518 3970)" fill="#009aa7"/>
    <circle id="Elipse_74-6" data-name="Elipse 74" cx="4.5" cy="4.5" r="4.5" transform="translate(552 3970)" fill="#009aa7"/>
    <circle id="Elipse_75-6" data-name="Elipse 75" cx="4.5" cy="4.5" r="4.5" transform="translate(587 3970)" fill="#009aa7"/>
    <circle id="Elipse_76-6" data-name="Elipse 76" cx="4.5" cy="4.5" r="4.5" transform="translate(621 3970)" fill="#009aa7"/>
    <circle id="Elipse_67-7" data-name="Elipse 67" cx="4.5" cy="4.5" r="4.5" transform="translate(310 4012)" fill="#009aa7"/>
    <circle id="Elipse_68-7" data-name="Elipse 68" cx="4.5" cy="4.5" r="4.5" transform="translate(345 4012)" fill="#009aa7"/>
    <circle id="Elipse_69-7" data-name="Elipse 69" cx="4.5" cy="4.5" r="4.5" transform="translate(379 4012)" fill="#009aa7"/>
    <circle id="Elipse_70-7" data-name="Elipse 70" cx="4.5" cy="4.5" r="4.5" transform="translate(414 4012)" fill="#009aa7"/>
    <circle id="Elipse_71-7" data-name="Elipse 71" cx="4.5" cy="4.5" r="4.5" transform="translate(448 4012)" fill="#009aa7"/>
    <circle id="Elipse_72-7" data-name="Elipse 72" cx="4.5" cy="4.5" r="4.5" transform="translate(483 4012)" fill="#009aa7"/>
    <circle id="Elipse_73-7" data-name="Elipse 73" cx="4.5" cy="4.5" r="4.5" transform="translate(518 4012)" fill="#009aa7"/>
    <circle id="Elipse_74-7" data-name="Elipse 74" cx="4.5" cy="4.5" r="4.5" transform="translate(552 4012)" fill="#009aa7"/>
    <circle id="Elipse_75-7" data-name="Elipse 75" cx="4.5" cy="4.5" r="4.5" transform="translate(587 4012)" fill="#009aa7"/>
    <circle id="Elipse_76-7" data-name="Elipse 76" cx="4.5" cy="4.5" r="4.5" transform="translate(621 4012)" fill="#009aa7"/>
    <circle id="Elipse_67-8" data-name="Elipse 67" cx="4.5" cy="4.5" r="4.5" transform="translate(310 4053)" fill="#009aa7"/>
    <circle id="Elipse_68-8" data-name="Elipse 68" cx="4.5" cy="4.5" r="4.5" transform="translate(345 4053)" fill="#009aa7"/>
    <circle id="Elipse_69-8" data-name="Elipse 69" cx="4.5" cy="4.5" r="4.5" transform="translate(379 4053)" fill="#009aa7"/>
    <circle id="Elipse_70-8" data-name="Elipse 70" cx="4.5" cy="4.5" r="4.5" transform="translate(414 4053)" fill="#009aa7"/>
    <circle id="Elipse_71-8" data-name="Elipse 71" cx="4.5" cy="4.5" r="4.5" transform="translate(448 4053)" fill="#009aa7"/>
    <circle id="Elipse_72-8" data-name="Elipse 72" cx="4.5" cy="4.5" r="4.5" transform="translate(483 4053)" fill="#009aa7"/>
    <circle id="Elipse_73-8" data-name="Elipse 73" cx="4.5" cy="4.5" r="4.5" transform="translate(518 4053)" fill="#009aa7"/>
    <circle id="Elipse_74-8" data-name="Elipse 74" cx="4.5" cy="4.5" r="4.5" transform="translate(552 4053)" fill="#009aa7"/>
    <circle id="Elipse_75-8" data-name="Elipse 75" cx="4.5" cy="4.5" r="4.5" transform="translate(587 4053)" fill="#009aa7"/>
    <circle id="Elipse_76-8" data-name="Elipse 76" cx="4.5" cy="4.5" r="4.5" transform="translate(621 4053)" fill="#009aa7"/>
  </g>
</svg>
