<svg id="linkedin_1_" data-name="linkedin (1)" xmlns="http://www.w3.org/2000/svg" width="24.43" height="23.96" viewBox="0 0 24.43 23.96">
  <path id="Caminho_36560" data-name="Caminho 36560" d="M311.483,280.548h.006v-8.96c0-4.383-.944-7.76-6.068-7.76a5.32,5.32,0,0,0-4.791,2.633h-.071v-2.224H295.7v16.31h5.059v-8.076c0-2.126.4-4.183,3.036-4.183,2.595,0,2.633,2.427,2.633,4.319v7.941Z" transform="translate(-287.059 -256.588)" fill="#009aa7"/>
  <path id="Caminho_36561" data-name="Caminho 36561" d="M13.794,277.866h5.065v16.31H13.794Z" transform="translate(-13.391 -270.215)" fill="#009aa7"/>
  <path id="Caminho_36562" data-name="Caminho 36562" d="M2.934,0A2.947,2.947,0,1,0,5.867,2.934,2.935,2.935,0,0,0,2.934,0Z" fill="#009aa7"/>
</svg>
