<svg xmlns="http://www.w3.org/2000/svg" width="519" height="325.484" viewBox="0 0 519 325.484">
  <g id="elemento-02" transform="translate(-0.048)" opacity="0.47">
    <path id="Caminho_3979" data-name="Caminho 3979" d="M4.134,0a4.133,4.133,0,0,1,2.93,1.256L19,13.605a4.147,4.147,0,0,1-6.07,5.651L1.2,7.117a4.046,4.046,0,0,1,.209-5.861A3.375,3.375,0,0,1,4.134,0M33.648,30.769a4.133,4.133,0,0,1,2.93,1.256l11.931,12.35a4.147,4.147,0,0,1-6.07,5.651L30.717,37.677a4.046,4.046,0,0,1,.209-5.861,3.214,3.214,0,0,1,2.721-1.047M63.37,61.329a4.133,4.133,0,0,1,2.93,1.256l11.931,12.35a4.234,4.234,0,0,1,0,5.861,4.046,4.046,0,0,1-5.861-.209L60.44,68.236a4.046,4.046,0,0,1,.209-5.861,3.979,3.979,0,0,1,2.721-1.047M92.884,92.1a4.133,4.133,0,0,1,2.93,1.256l11.931,12.35a4.234,4.234,0,0,1,0,5.861,4.046,4.046,0,0,1-5.861-.209L89.953,99.006a4.046,4.046,0,0,1,.209-5.861A3.214,3.214,0,0,1,92.884,92.1M10.623,6.7a4.133,4.133,0,0,1,2.93,1.256l123.7,128.1a4.147,4.147,0,0,1-6.07,5.652L7.693,13.815a4.047,4.047,0,0,1,0-5.861A4.133,4.133,0,0,1,10.623,6.7m141.5,146.729a4.133,4.133,0,0,1,2.93,1.256l11.931,12.35a4.147,4.147,0,0,1-6.07,5.652l-11.931-12.35a4.046,4.046,0,0,1,.209-5.861,3.917,3.917,0,0,1,2.93-1.047m29.513,30.56a4.133,4.133,0,0,1,2.93,1.256l11.931,12.35a4.222,4.222,0,0,1-6.07,5.861L178.493,191.1a4.234,4.234,0,0,1,0-5.861,5.027,5.027,0,0,1,3.14-1.256m29.513,30.769a4.133,4.133,0,0,1,2.93,1.256l2.93,3.14a4.133,4.133,0,0,1,1.256,2.93v12.768a4.2,4.2,0,0,1-4.186,4.186h0a4.2,4.2,0,0,1-4.186-4.186V223.757l-1.884-1.884a4.234,4.234,0,0,1,0-5.861,5.027,5.027,0,0,1,3.14-1.256m3.14,41.235a4.2,4.2,0,0,1,4.186,4.186v16.954a4.2,4.2,0,0,1-4.186,4.186h0a4.2,4.2,0,0,1-4.186-4.186V260.178a4.2,4.2,0,0,1,4.186-4.186Zm.209,42.7a4.2,4.2,0,0,1,4.186,4.186v16.954a4.2,4.2,0,0,1-4.186,4.186h0a4.2,4.2,0,0,1-4.186-4.186V302.878a4.2,4.2,0,0,1,4.186-4.186Z" transform="translate(0)" fill="rgba(0,145,157,.47)"/>
    <path id="Caminho_3980" data-name="Caminho 3980" d="M26.674,116.556a4.26,4.26,0,0,1,3.14-1.256l16.954.209a4.186,4.186,0,1,1,0,8.373l-16.954-.209a4.2,4.2,0,0,1-4.186-4.186,2.914,2.914,0,0,1,1.047-2.93m42.491.628a4.26,4.26,0,0,1,3.14-1.256l16.954.209a4.186,4.186,0,1,1,0,8.373L72.3,124.3a4.2,4.2,0,0,1-4.186-4.186,5,5,0,0,1,1.047-2.93m42.7.837a4.133,4.133,0,0,1,2.93-1.256l16.954.209a4.186,4.186,0,0,1,0,8.373l-16.954-.209a4.2,4.2,0,0,1-4.186-4.186,3.8,3.8,0,0,1,1.256-2.93m42.491.837a4.26,4.26,0,0,1,3.14-1.256l16.954.209a4.186,4.186,0,1,1,0,8.373l-16.954-.209a4.2,4.2,0,0,1-4.186-4.186,4.141,4.141,0,0,1,1.047-2.93m42.7.628a4.26,4.26,0,0,1,3.14-1.256l16.954.209a4.186,4.186,0,1,1,0,8.373L200.2,126.6a4.2,4.2,0,0,1-4.186-4.186,3.251,3.251,0,0,1,1.047-2.93m85.191,1.674a4.26,4.26,0,0,1,3.14-1.256l16.954.209a4.186,4.186,0,0,1,0,8.373l-16.954-.209a4.2,4.2,0,0,1-4.186-4.186,2.914,2.914,0,0,1,1.047-2.93m42.491.628a4.26,4.26,0,0,1,3.14-1.256l16.954.209a4.186,4.186,0,0,1,0,8.373l-16.954-.209a4.2,4.2,0,0,1-4.186-4.186,5,5,0,0,1,1.047-2.93m42.7.837a4.26,4.26,0,0,1,3.14-1.256l16.954.209a4.186,4.186,0,1,1,0,8.373l-16.954-.209a4.2,4.2,0,0,1-4.186-4.186,3.251,3.251,0,0,1,1.047-2.93m42.7.837a4.26,4.26,0,0,1,3.14-1.256h4.4a4.132,4.132,0,0,1,2.93,1.256l9,9a4.047,4.047,0,0,1,0,5.861h0a4.047,4.047,0,0,1-5.861,0L416,130.58h-2.721a4.2,4.2,0,0,1-4.186-4.186,2.914,2.914,0,0,1,1.047-2.93m31.4,27a4.047,4.047,0,0,1,5.861,0l12.14,11.931a4.047,4.047,0,0,1,0,5.861h0a4.047,4.047,0,0,1-5.861,0l-12.14-11.931a4.047,4.047,0,0,1,0-5.861ZM471.886,180.4a4.047,4.047,0,0,1,5.861,0l12.14,11.931a4.047,4.047,0,0,1,0,5.861h0a4.047,4.047,0,0,1-5.861,0l-12.14-11.931a4.045,4.045,0,0,1,0-5.861Z" transform="translate(27.905 126.04)" fill="rgba(0,145,157,.47)"/>
    <path id="Caminho_3981" data-name="Caminho 3981" d="M150.544,104A32.444,32.444,0,1,1,118.1,136.444,32.472,32.472,0,0,1,150.544,104m0,55.887A23.443,23.443,0,1,0,127.1,136.444a23.539,23.539,0,0,0,23.443,23.443" transform="translate(129.048 113.687)" fill="rgba(0,145,157,.47)"/>
  </g>
</svg>
