<svg xmlns="http://www.w3.org/2000/svg" width="6.874" height="6.912" viewBox="0 0 6.874 6.912">
  <g id="Grupo_35131" data-name="Grupo 35131" transform="translate(0 0)">
    <g id="arrow-down-sign-to-navigate" transform="translate(2.934 6.912) rotate(-90)">
      <path id="Caminho_36455" data-name="Caminho 36455" d="M3.456,3.94A.483.483,0,0,1,3.114,3.8L.142.826A.484.484,0,0,1,.826.142l2.63,2.63L6.085.142A.484.484,0,0,1,6.77.826L3.8,3.8A.483.483,0,0,1,3.456,3.94Z" transform="translate(0)" fill="#fff"/>
    </g>
    <g id="arrow-down-sign-to-navigate-2" data-name="arrow-down-sign-to-navigate" transform="translate(0 6.912) rotate(-90)">
      <path id="Caminho_36455-2" data-name="Caminho 36455" d="M3.456,3.94A.483.483,0,0,1,3.114,3.8L.142.826A.484.484,0,0,1,.826.142l2.63,2.63L6.085.142A.484.484,0,0,1,6.77.826L3.8,3.8A.483.483,0,0,1,3.456,3.94Z" transform="translate(0)" fill="#fff"/>
    </g>
  </g>
</svg>
