<svg version="1.1" xmlns="http://www.w3.org/2000/svg" xmlns:xlink="http://www.w3.org/1999/xlink" x="0px" y="0px" viewBox="0 0 512 512">
	<g>
		<path fill="#009AA7" d="M479.1,129.2l-96.3-96.3c-15.3-16-36.7-24.4-58.8-24.4h-38.2l0.8,100.1
			c81,16.8,132.9,95.5,116.1,176.5s-95.5,132.9-176.5,116.1c-81-16.8-132.9-95.5-116.1-176.5c12.2-58.1,58.1-103.9,116.1-116.1
			L225.4,8.5H188c-22.2,0-43.5,9.2-58.8,24.4l-96.2,96.3c-16,15.3-24.4,36.7-24.4,58.8v136c0,22.2,9.2,43.5,24.4,58.8l96.3,96.3
			c15.3,16,36.7,24.4,58.8,24.4h136c22.2,0,43.5-9.2,58.8-24.4l96.3-96.3c16-15.3,24.4-36.7,24.4-58.8V188
			C503.5,165.9,495.1,144.5,479.1,129.2"/>
		<path fill="#009AA7" d="M172,253.3c0,46.6,37.4,84,84,84s84-37.4,84-84c0-34.4-21.4-65.7-53.5-78.7v77.9
			c0,16.8-13.8,30.6-30.6,30.6s-30.6-13.8-30.6-30.6v-77.2C193.4,187.6,172,219,172,253.3"/>
	</g>
</svg>
